<?xml version="1.0" encoding="UTF-8"?>
<!DOCTYPE svg PUBLIC "-//W3C//DTD SVG 1.1//EN" "http://www.w3.org/Graphics/SVG/1.1/DTD/svg11.dtd">
<!-- Creator: CorelDRAW X6 -->
<svg xmlns="http://www.w3.org/2000/svg" xml:space="preserve" width="94.0556mm" height="94.0556mm" version="1.1" style="shape-rendering:geometricPrecision; text-rendering:geometricPrecision; image-rendering:optimizeQuality; fill-rule:evenodd; clip-rule:evenodd"
viewBox="0 0 8788 8788"
 xmlns:xlink="http://www.w3.org/1999/xlink">
 <defs>
  <style type="text/css">
   <![CDATA[
    .fil0 {fill:none}
    .fil2 {fill:#FF2200}
    .fil1 {fill:black;fill-rule:nonzero}
   ]]>
  </style>
 </defs>
 <g id="Capa_x0020_1">
  <metadata id="CorelCorpID_0Corel-Layer"/>
  <rect class="fil0" width="8788" height="8788"/>
  <path class="fil1" d="M1418 2292l5951 0c59,0 112,23 151,60 40,38 66,92 66,151l0 2713 -197 0 0 -2713c0,-3 -2,-6 -4,-9 -4,-4 -10,-6 -16,-6l-5951 0c-7,0 -12,2 -16,6 -3,2 -4,5 -4,9l0 2713 -197 0 0 -2713c0,-59 25,-112 66,-151 39,-37 93,-60 151,-60z"/>
  <path class="fil1" d="M1999 4025c-40,40 -106,40 -146,0 -40,-40 -40,-106 0,-146l963 -963c40,-40 106,-40 146,0 40,40 40,106 0,146l-963 963z"/>
  <path class="fil1" d="M1892 3561c-40,40 -106,40 -146,0 -40,-40 -40,-106 0,-146l610 -610c40,-40 106,-40 146,0 40,40 40,106 0,146l-610 610z"/>
  <path class="fil1" d="M1780 3180c-40,40 -106,40 -146,0 -40,-40 -40,-106 0,-146l318 -318c40,-40 106,-40 146,0 40,40 40,106 0,146l-318 318z"/>
  <path class="fil1" d="M2567 6531c-52,24 -113,2 -137,-49 -24,-52 -2,-113 49,-137 209,-99 495,-180 831,-236 321,-53 689,-84 1078,-84 393,0 764,31 1088,85 339,57 626,140 834,241 51,25 73,86 48,138 -25,51 -86,73 -138,48 -190,-92 -459,-169 -778,-223 -311,-52 -670,-82 -1054,-82 -380,0 -736,29 -1045,80 -317,53 -584,128 -776,219z"/>
  <path class="fil2" d="M7586 5216l0 486c0,59 -25,112 -66,151 -39,37 -93,60 -151,60l-5951 0c-59,0 -112,-23 -151,-60 -40,-38 -66,-92 -66,-151l0 -486 6385 0z"/>
 </g>
</svg>
